<svg xmlns="http://www.w3.org/2000/svg" xmlns:xlink="http://www.w3.org/1999/xlink" viewBox="0 0 660 660" width="660" height="660" preserveAspectRatio="xMidYMid meet" style="width: 100%; height: 100%; transform: translate3d(0px, 0px, 0px); content-visibility: visible;"><defs><clipPath id="__lottie_element_1715"><rect width="660" height="660" x="0" y="0"></rect></clipPath></defs><g clip-path="url(#__lottie_element_1715)"><g transform="matrix(1,0,0,1,116.47999572753906,168.5640106201172)" opacity="1" style="display: block;"><g opacity="1" transform="matrix(1,0,0,1,197.43299865722656,197.43299865722656)"><path fill="rgb(242,242,242)" fill-opacity="1" d=" M197.18299865722656,0 C197.18299865722656,108.9010009765625 108.9010009765625,197.18299865722656 0,197.18299865722656 C-108.9010009765625,197.18299865722656 -197.05999755859375,108.9010009765625 -197.18299865722656,0 C-197.40699768066406,-197.43299865722656 -197.43299865722656,-197.843994140625 0,-197.18299865722656 C108.9000015258789,-196.8179931640625 197.18299865722656,-108.9010009765625 197.18299865722656,0z"></path></g><g opacity="1" transform="matrix(1,0,0,1,0,-2)"><path stroke-linecap="butt" stroke-linejoin="miter" fill-opacity="0" stroke-miterlimit="10" stroke="rgb(255,255,255)" stroke-opacity="1" stroke-width="0.6" d=" M311.593994140625,337.7349853515625 C311.593994140625,337.7349853515625 43.16899871826172,337.7349853515625 43.16899871826172,337.7349853515625"></path></g><g opacity="1" transform="matrix(1,0,0,1,0,0)"><path stroke-linecap="butt" stroke-linejoin="miter" fill-opacity="0" stroke-miterlimit="10" stroke="rgb(255,255,255)" stroke-opacity="1" stroke-width="1.2" d=" M311.593994140625,328.0849914550781 C311.593994140625,328.0849914550781 43.16899871826172,328.0849914550781 43.16899871826172,328.0849914550781"></path></g><g opacity="1" transform="matrix(1,0,0,1,187.13099670410156,210.08299255371094)"><path fill="rgb(229,229,229)" fill-opacity="1" d=" M-186.88400268554688,-12.649999618530273 C-186.88400268554688,96.2509994506836 -98.60199737548828,184.5330047607422 10.298999786376953,184.5330047607422 C87.63899993896484,184.5330047607422 154.57899475097656,140.0070037841797 186.88400268554688,75.19100189208984 C186.91600036621094,75.12699890136719 -85.93399810791016,75.44400024414062 -85.93399810791016,75.44400024414062 C-85.93399810791016,75.44400024414062 -86.39099884033203,-208.25399780273438 -86.40299987792969,-208.25399780273438 C-157.7259979248047,-208.1699981689453 -175.5489959716797,-182.20399475097656 -182.51100158691406,-140.56500244140625 C-189.01300048828125,-101.6760025024414 -186.88400268554688,-48.27199935913086 -186.88400268554688,-12.649999618530273z"></path></g><g opacity="1" transform="matrix(1,0,0,1,266.5639953613281,60.551998138427734)"><path fill="rgb(229,229,229)" fill-opacity="1" d=" M77.02799987792969,4.525000095367432 C56.08100128173828,-18.593000411987305 29.722000122070312,-36.709999084472656 -0.04399999976158142,-47.847999572753906 C-0.04399999976158142,-47.847999572753906 -77.02799987792969,-47.847999572753906 -77.02799987792969,-47.847999572753906 C-77.02799987792969,-47.847999572753906 -77.02799987792969,47.847999572753906 -77.02799987792969,47.847999572753906 C-77.02799987792969,47.847999572753906 77.02799987792969,47.847999572753906 77.02799987792969,47.847999572753906 C77.02799987792969,47.847999572753906 77.02799987792969,4.525000095367432 77.02799987792969,4.525000095367432z"></path></g><g opacity="1" transform="matrix(1,0,0,1,110.49600219726562,152.4219970703125)"><path fill="rgb(255,255,255)" fill-opacity="1" d=" M59.89799880981445,114.8010025024414 C59.89799880981445,114.8010025024414 -59.89799880981445,114.8010025024414 -59.89799880981445,114.8010025024414 C-59.89799880981445,114.8010025024414 -59.89799880981445,-114.8010025024414 -59.89799880981445,-114.8010025024414 C-59.89799880981445,-114.8010025024414 59.89799880981445,-114.8010025024414 59.89799880981445,-114.8010025024414 C59.89799880981445,-114.8010025024414 59.89799880981445,114.8010025024414 59.89799880981445,114.8010025024414z"></path></g><g opacity="1" transform="matrix(1,0,0,1,0.125,0.125)"><path fill="rgb(255,255,255)" fill-opacity="1" d=" M163.26699829101562,9.496000289916992 C163.26699829101562,9.496000289916992 163.26699829101562,239.39199829101562 163.26699829101562,239.39199829101562"></path></g><g opacity="1" transform="matrix(1,0,0,1,0,0)"><path stroke-linecap="butt" stroke-linejoin="miter" fill-opacity="0" stroke-miterlimit="10" stroke="rgb(242,242,242)" stroke-opacity="1" stroke-width="0.905" d=" M163.39199829101562,9.621000289916992 C163.39199829101562,9.621000289916992 163.39199829101562,239.51699829101562 163.39199829101562,239.51699829101562"></path></g><g opacity="1" transform="matrix(1,0,0,1,0.125,0.125)"><path fill="rgb(255,255,255)" fill-opacity="1" d=" M57.47600173950195,244.39199829101562 C57.47600173950195,244.39199829101562 57.47600173950195,54.49599838256836 57.47600173950195,54.49599838256836"></path></g><g opacity="1" transform="matrix(1,0,0,1,0,0)"><path stroke-linecap="butt" stroke-linejoin="miter" fill-opacity="0" stroke-miterlimit="10" stroke="rgb(242,242,242)" stroke-opacity="1" stroke-width="0.905" d=" M57.60100173950195,244.51699829101562 C57.60100173950195,244.51699829101562 57.60100173950195,54.62099838256836 57.60100173950195,54.62099838256836"></path></g><g opacity="1" transform="matrix(1,0,0,1,0.125,0.625)"><path fill="rgb(255,255,255)" fill-opacity="1" d=" M156.68899536132812,9.496000289916992 C156.68899536132812,9.496000289916992 156.68899536132812,239.39199829101562 156.68899536132812,239.39199829101562"></path></g><g opacity="1" transform="matrix(1,0,0,1,0,0)"><path stroke-linecap="butt" stroke-linejoin="miter" fill-opacity="0" stroke-miterlimit="10" stroke="rgb(242,242,242)" stroke-opacity="1" stroke-width="0.847" d=" M156.81300354003906,9.621000289916992 C156.81300354003906,9.621000289916992 156.81300354003906,239.51699829101562 156.81300354003906,239.51699829101562"></path></g><g opacity="1" transform="matrix(1,0,0,1,0.125,0.125)"><path fill="rgb(255,255,255)" fill-opacity="1" d=" M64.05500030517578,244.39199829101562 C64.05500030517578,244.39199829101562 64.05500030517578,40.49599838256836 64.05500030517578,40.49599838256836"></path></g><g opacity="1" transform="matrix(1,0,0,1,0,0)"><path stroke-linecap="butt" stroke-linejoin="miter" fill-opacity="0" stroke-miterlimit="10" stroke="rgb(242,242,242)" stroke-opacity="1" stroke-width="0.847" d=" M64.17900085449219,244.51699829101562 C64.17900085449219,244.51699829101562 64.17900085449219,40.62099838256836 64.17900085449219,40.62099838256836"></path></g><g opacity="1" transform="matrix(1,0,0,1,0.125,0.125)"><path fill="rgb(255,255,255)" fill-opacity="1" d=" M156.3979949951172,174.2469940185547 C156.3979949951172,174.2469940185547 64.0790023803711,174.2469940185547 64.0790023803711,174.2469940185547"></path></g><g opacity="1" transform="matrix(1,0,0,1,0,0)"><path stroke-linecap="butt" stroke-linejoin="miter" fill-opacity="0" stroke-miterlimit="10" stroke="rgb(242,242,242)" stroke-opacity="1" stroke-width="0.847" d=" M156.52200317382812,174.3719940185547 C156.52200317382812,174.3719940185547 64.2030029296875,174.3719940185547 64.2030029296875,174.3719940185547"></path></g><g opacity="1" transform="matrix(1,0,0,1,0.125,0.125)"><path fill="rgb(255,255,255)" fill-opacity="1" d=" M64.0790023803711,81.61399841308594 C64.0790023803711,81.61399841308594 156.3979949951172,81.61399841308594 156.3979949951172,81.61399841308594"></path></g><g opacity="1" transform="matrix(1,0,0,1,0,0)"><path stroke-linecap="butt" stroke-linejoin="miter" fill-opacity="0" stroke-miterlimit="10" stroke="rgb(242,242,242)" stroke-opacity="1" stroke-width="0.847" d=" M64.2030029296875,81.73899841308594 C64.2030029296875,81.73899841308594 156.52200317382812,81.73899841308594 156.52200317382812,81.73899841308594"></path></g><g opacity="1" transform="matrix(1,0,0,1,0.125,0.125)"><path fill="rgb(255,255,255)" fill-opacity="1" d=" M156.3979949951172,165.19700622558594 C156.3979949951172,165.19700622558594 64.0790023803711,165.19700622558594 64.0790023803711,165.19700622558594"></path></g><g opacity="1" transform="matrix(1,0,0,1,0,0)"><path stroke-linecap="butt" stroke-linejoin="miter" fill-opacity="0" stroke-miterlimit="10" stroke="rgb(242,242,242)" stroke-opacity="1" stroke-width="0.847" d=" M156.52200317382812,165.32200622558594 C156.52200317382812,165.32200622558594 64.2030029296875,165.32200622558594 64.2030029296875,165.32200622558594"></path></g><g opacity="1" transform="matrix(1,0,0,1,0,0)"><path stroke-linecap="butt" stroke-linejoin="miter" fill-opacity="0" stroke-miterlimit="10" stroke="rgb(242,242,242)" stroke-opacity="1" stroke-width="0.847" d=" M64.2030029296875,72.68800354003906 C64.2030029296875,72.68800354003906 156.52200317382812,72.68800354003906 156.52200317382812,72.68800354003906"></path></g><g opacity="1" transform="matrix(1,0,0,1,0.125,0.125)"><path fill="rgb(255,255,255)" fill-opacity="1" d=" M64.0790023803711,72.56300354003906 C64.0790023803711,72.56300354003906 156.3979949951172,72.56300354003906 156.3979949951172,72.56300354003906"></path></g><g opacity="1" transform="matrix(1,0,0,1,121.9489974975586,122.44300079345703)"><path fill="rgb(242,242,242)" fill-opacity="1" d=" M48.33000183105469,85.31800079345703 C48.33000183105469,85.31800079345703 -48.33000183105469,85.31800079345703 -48.33000183105469,85.31800079345703 C-48.33000183105469,85.31800079345703 -48.33000183105469,-85.31800079345703 -48.33000183105469,-85.31800079345703 C-48.33000183105469,-85.31800079345703 48.33000183105469,-85.31800079345703 48.33000183105469,-85.31800079345703 C48.33000183105469,-85.31800079345703 48.33000183105469,85.31800079345703 48.33000183105469,85.31800079345703z"></path></g><g opacity="1" transform="matrix(0.6884700059890747,0,0,1,232.55299377441406,342.4330139160156)"><path fill="rgb(217,215,223)" fill-opacity="1" d=" M105.08000183105469,23.802000045776367 C105.08000183105469,23.802000045776367 -105.08000183105469,23.802000045776367 -105.08000183105469,23.802000045776367 C-105.08000183105469,23.802000045776367 -105.08000183105469,-23.801000595092773 -105.08000183105469,-23.801000595092773 C-105.08000183105469,-23.801000595092773 105.08000183105469,-23.801000595092773 105.08000183105469,-23.801000595092773 C105.08000183105469,-23.801000595092773 105.08000183105469,23.802000045776367 105.08000183105469,23.802000045776367z"></path></g><g opacity="0.6" transform="matrix(1,0,0,1,266.5639953613281,60.551998138427734)"><path fill="rgb(156,115,247)" fill-opacity="1" d=" M64.30500030517578,3.7780001163482666 C46.81800079345703,-15.520999908447266 24.812999725341797,-30.645999908447266 -0.03799999877810478,-39.944000244140625 C-0.03799999877810478,-39.944000244140625 -64.30500030517578,-39.944000244140625 -64.30500030517578,-39.944000244140625 C-64.30500030517578,-39.944000244140625 -64.30500030517578,39.94499969482422 -64.30500030517578,39.94499969482422 C-64.30500030517578,39.94499969482422 64.30500030517578,39.94499969482422 64.30500030517578,39.94499969482422 C64.30500030517578,39.94499969482422 64.30500030517578,3.7780001163482666 64.30500030517578,3.7780001163482666z"></path></g><g opacity="1" transform="matrix(1,0,0,1,371.0790100097656,212.37899780273438)"><path fill="rgb(229,229,229)" fill-opacity="1" d=" M-57.47800064086914,56.375999450683594 C-50.88999938964844,35.45199966430664 -42.56800079345703,22.163999557495117 -40.04899978637695,16.93400001525879 C-37.53099822998047,11.70199966430664 -38.69300079345703,-2.246999979019165 -18.350000381469727,-31.889999389648438 C1.9930000305175781,-61.53200149536133 13.42300033569336,-69.47599792480469 13.42300033569336,-69.47599792480469 C13.42300033569336,-69.47599792480469 23.111000061035156,-61.3390007019043 23.111000061035156,-61.3390007019043 C23.111000061035156,-61.3390007019043 15.361000061035156,-71.8010025024414 15.361000061035156,-71.8010025024414 C15.361000061035156,-71.8010025024414 29.697999954223633,-85.75 37.64099884033203,-86.5250015258789 C45.584999084472656,-87.30000305175781 60.88999938964844,-85.36299896240234 53.52799987792969,-66.56999969482422 C46.16600036621094,-47.7760009765625 23.885000228881836,-11.739999771118164 23.885000228881836,-11.739999771118164 C23.885000228881836,-11.739999771118164 10.128999710083008,-19.101999282836914 10.128999710083008,-19.101999282836914 C10.128999710083008,-19.101999282836914 22.334999084472656,-9.222000122070312 22.334999084472656,-9.222000122070312 C22.334999084472656,-9.222000122070312 11.58899974822998,24.007999420166016 -3.7160000801086426,35.051998138427734 C-19.02199935913086,46.095001220703125 -27.134000778198242,67.40899658203125 -30.555999755859375,74.4749984741211 C-34.00899887084961,81.60600280761719 -42.61000061035156,87.29900360107422 -50.457000732421875,85.13800048828125 C-58.667999267578125,82.87699890136719 -60.88999938964844,67.21700286865234 -57.47800064086914,56.375999450683594z"></path></g><g opacity="1" transform="matrix(1,0,0,1,332.95599365234375,172.8780059814453)"><path fill="rgb(217,215,223)" fill-opacity="1" d=" M-38.112998962402344,115.52999877929688 C-38.112998962402344,115.52999877929688 -55.68000030517578,107.19300079345703 -59.8489990234375,95.58000183105469 C-64.01799774169922,83.96800231933594 -57.76499938964844,53.89400100708008 -57.76499938964844,53.89400100708008 C-57.76499938964844,53.89400100708008 -39.303001403808594,68.48400115966797 -39.303001403808594,68.48400115966797 C-39.303001403808594,68.48400115966797 -55.68000030517578,50.91699981689453 -55.68000030517578,50.91699981689453 C-55.68000030517578,50.91699981689453 -48.832000732421875,40.792999267578125 -46.74800109863281,16.674999237060547 C-44.66400146484375,-7.445000171661377 -22.332000732421875,-31.264999389648438 -22.034000396728516,-32.15800094604492 C-21.736000061035156,-33.051998138427734 -16.07900047302246,-61.637001037597656 -7.145999908447266,-80.09700012207031 C1.7860000133514404,-98.55799865722656 12.208000183105469,-118.50800323486328 27.09600067138672,-112.25499725341797 C41.98500061035156,-106.00199890136719 64.01799774169922,-84.56400299072266 38.4109992980957,-59.25400161743164 C12.803999900817871,-33.94499969482422 5.6579999923706055,1.190999984741211 5.6579999923706055,1.190999984741211 C5.6579999923706055,1.190999984741211 -13.696999549865723,-6.848999977111816 -12.208000183105469,-6.551000118255615 C-10.718999862670898,-6.252999782562256 4.169000148773193,4.763000011444092 4.169000148773193,4.763000011444092 C4.169000148773193,4.763000011444092 -4.4670000076293945,31.562000274658203 -4.4670000076293945,31.562000274658203 C-4.4670000076293945,31.562000274658203 -25.905000686645508,19.950000762939453 -24.714000701904297,20.545000076293945 C-23.52199935913086,21.139999389648438 -6.252999782562256,36.922000885009766 -6.252999782562256,36.922000885009766 C-6.252999782562256,36.922000885009766 -17.222999572753906,55.91400146484375 -22.034000396728516,75.03500366210938 C-26.325000762939453,92.08799743652344 -24.30500030517578,109.30599975585938 -27.39299964904785,112.25499725341797 C-33.944000244140625,118.50800323486328 -38.112998962402344,115.52999877929688 -38.112998962402344,115.52999877929688z"></path></g><g opacity="1" transform="matrix(1,0,0,1,263.7569885253906,243.4709930419922)"><path fill="rgb(229,229,229)" fill-opacity="1" d=" M26.117000579833984,52.24700164794922 C26.117000579833984,52.24700164794922 15.076000213623047,57.88100051879883 0.6980000138282776,10.019000053405762 C-5.0920000076293945,-9.255999565124512 -12.512999534606934,-24.48200035095215 -18.100000381469727,-35.33100128173828 C-26.385000228881836,-51.42100143432617 -30.63800048828125,-57.88100051879883 -19.558000564575195,-53.64099884033203 C-1.0069999694824219,-46.54100036621094 29.863000869750977,3.1589999198913574 30.250999450683594,28.18400001525879 C30.63800048828125,53.20899963378906 26.117000579833984,52.24700164794922 26.117000579833984,52.24700164794922z"></path></g><g opacity="1" transform="matrix(1,0,0,1,359.9100036621094,233.5240020751953)"><path fill="rgb(255,255,255)" fill-opacity="1" d=" M-41.1510009765625,83.97899627685547 C-40.784000396728516,76.0270004272461 -40.13600158691406,68.0790023803711 -39.051998138427734,60.178001403808594 C-37.90700149536133,52.28900146484375 -36.39400100708008,44.44499969482422 -34.40800094604492,36.71099853515625 C-32.44300079345703,28.972000122070312 -29.891000747680664,21.378000259399414 -26.839000701904297,13.991000175476074 C-23.773000717163086,6.611000061035156 -20.195999145507812,-0.5730000138282776 -15.984000205993652,-7.380000114440918 C-11.723999977111816,-14.154999732971191 -7.084000110626221,-20.6299991607666 -2.440999984741211,-27.104999542236328 C2.2269999980926514,-33.560001373291016 6.921000003814697,-39.99300003051758 11.741999626159668,-46.332000732421875 C16.558000564575195,-52.67300033569336 21.347000122070312,-59.03300094604492 26.292999267578125,-65.2750015258789 C31.24799919128418,-71.51000213623047 36.1609992980957,-77.7750015258789 41.1510009765625,-83.97899627685547 C36.43299865722656,-77.56300354003906 31.639999389648438,-71.20899963378906 26.88800048828125,-64.82499694824219 C22.065000534057617,-58.494998931884766 17.3799991607666,-52.05699920654297 12.680999755859375,-45.6349983215332 C8.01200008392334,-39.189998626708984 3.2860000133514404,-32.78900146484375 -1.315999984741211,-26.299999237060547 C-5.914000034332275,-19.812999725341797 -10.510000228881836,-13.307000160217285 -14.694000244140625,-6.581999778747559 C-23.0939998626709,6.860000133514404 -29.08300018310547,21.7189998626709 -33.284000396728516,37.01100158691406 C-37.50600051879883,52.32400131225586 -39.86000061035156,68.11499786376953 -41.1510009765625,83.97899627685547z"></path></g><g opacity="1" transform="matrix(1,0,0,1,321.8399963378906,211.36599731445312)"><path fill="rgb(255,255,255)" fill-opacity="1" d=" M-14.253999710083008,118.05400085449219 C-17.781999588012695,108.15699768066406 -20.70599937438965,98.03700256347656 -23.052000045776367,87.78099822998047 C-25.325000762939453,77.50800323486328 -27.020000457763672,67.10099792480469 -28.05699920654297,56.62099838256836 C-28.61199951171875,51.38399887084961 -28.908000946044922,46.12300109863281 -29.117000579833984,40.861000061035156 C-29.238000869750977,35.595001220703125 -29.31800079345703,30.325000762939453 -29.107999801635742,25.059999465942383 C-28.9689998626709,19.79199981689453 -28.570999145507812,14.53600025177002 -28.094999313354492,9.288000106811523 C-27.530000686645508,4.050000190734863 -26.884000778198242,-1.184000015258789 -25.974000930786133,-6.376999855041504 C-22.351999282836914,-27.138999938964844 -15.857999801635742,-47.42900085449219 -6.456999778747559,-66.29100036621094 C-4.111999988555908,-71.00700378417969 -1.6089999675750732,-75.64600372314453 1.0829999446868896,-80.1709976196289 C3.759999990463257,-84.7030029296875 6.572999954223633,-89.15599822998047 9.579000473022461,-93.47599792480469 C15.598999977111816,-102.10800170898438 22.194000244140625,-110.33000183105469 29.31800079345703,-118.05400085449219 C22.378999710083008,-110.16400146484375 15.989999771118164,-101.8010025024414 10.194000244140625,-93.05799865722656 C7.267000198364258,-88.70600128173828 4.517000198364258,-84.23699951171875 1.9129999876022339,-79.68800354003906 C-0.7070000171661377,-75.14700317382812 -3.13700008392334,-70.5 -5.406000137329102,-65.77799987792969 C-14.538000106811523,-46.915000915527344 -20.993999481201172,-26.77199935913086 -24.479000091552734,-6.119999885559082 C-25.40399932861328,-0.9660000205039978 -26.06800079345703,4.230000019073486 -26.652000427246094,9.434000015258789 C-27.14900016784668,14.647000312805176 -27.56800079345703,19.8700008392334 -27.72800064086914,25.10700035095215 C-27.959999084472656,30.340999603271484 -27.90399932861328,35.582000732421875 -27.80699920654297,40.82099914550781 C-27.604000091552734,46.05500030517578 -27.375999450683594,51.29199981689453 -26.898000717163086,56.51300048828125 C-26.006999969482422,66.95899963378906 -24.441999435424805,77.3479995727539 -22.327999114990234,87.625 C-20.231000900268555,97.90599822998047 -17.548999786376953,108.07599639892578 -14.253999710083008,118.05400085449219z"></path></g><g opacity="1" transform="matrix(1,0,0,1,279.468994140625,271.13800048828125)"><path fill="rgb(255,255,255)" fill-opacity="1" d=" M15.82800006866455,59.39899826049805 C15.008999824523926,54.321998596191406 14.267000198364258,49.23899841308594 13.326000213623047,44.1879997253418 C12.46399974822998,39.125 11.508999824523926,34.08100128173828 10.473999977111816,29.052000045776367 C8.402999877929688,18.999000549316406 6.138999938964844,8.982999801635742 3.444000005722046,-0.9190000295639038 C0.8550000190734863,-10.850000381469727 -2.135999917984009,-20.670000076293945 -5.353000164031982,-30.417999267578125 C-6.940999984741211,-35.29899978637695 -8.628000259399414,-40.150001525878906 -10.496000289916992,-44.93299865722656 C-12.270999908447266,-49.75199890136719 -14.093999862670898,-54.55400085449219 -15.82800006866455,-59.39899826049805 C-11.821000099182129,-49.93899917602539 -7.618000030517578,-40.527000427246094 -4.247000217437744,-30.797000885009766 C-0.7919999957084656,-21.100000381469727 2.1989998817443848,-11.241000175476074 4.910999774932861,-1.309000015258789 C7.492000102996826,8.657999992370605 9.78499984741211,18.70400047302246 11.616000175476074,28.83300018310547 C12.513999938964844,33.9010009765625 13.343999862670898,38.97800064086914 14.055999755859375,44.073001861572266 C14.75100040435791,49.16999816894531 15.347999572753906,54.279998779296875 15.82800006866455,59.39899826049805z"></path></g><g opacity="1" transform="matrix(1,0,0,1,306.9779968261719,342.35400390625)"><path fill="rgb(247,246,247)" fill-opacity="1" d=" M19.1200008392334,32.63199996948242 C19.1200008392334,32.63199996948242 -19.118000030517578,32.63199996948242 -19.118000030517578,32.63199996948242 C-19.118000030517578,32.63199996948242 -21.398000717163086,-32.63199996948242 -21.398000717163086,-32.63199996948242 C-21.398000717163086,-32.63199996948242 21.398000717163086,-32.63199996948242 21.398000717163086,-32.63199996948242 C21.398000717163086,-32.63199996948242 19.1200008392334,32.63199996948242 19.1200008392334,32.63199996948242z"></path></g><g opacity="1" transform="matrix(1,0,0,1,306.97900390625,315.22198486328125)"><path fill="rgb(229,229,229)" fill-opacity="1" d=" M21.996999740600586,6.328000068664551 C21.996999740600586,6.328000068664551 -21.99799919128418,6.328000068664551 -21.99799919128418,6.328000068664551 C-21.99799919128418,6.328000068664551 -23.10099983215332,-6.328000068664551 -23.10099983215332,-6.328000068664551 C-23.10099983215332,-6.328000068664551 23.100000381469727,-6.328000068664551 23.100000381469727,-6.328000068664551 C23.100000381469727,-6.328000068664551 21.996999740600586,6.328000068664551 21.996999740600586,6.328000068664551z"></path></g><g opacity="1" transform="matrix(1,0,0,1,70.69499969482422,168.75799560546875)"><path fill="rgb(217,215,223)" fill-opacity="1" d=" M28.46500015258789,-130.53500366210938 C28.46500015258789,-130.53500366210938 28.46500015258789,125.58399963378906 28.46500015258789,125.58399963378906 C28.46500015258789,125.58399963378906 22.524999618530273,115.68399810791016 16.089000701904297,120.13899993896484 C9.652999877929688,124.59400177001953 8.663999557495117,130.53500366210938 2.2290000915527344,127.56500244140625 C-4.206999778747559,124.59400177001953 0.7419999837875366,119.14900207519531 -7.178999900817871,119.14900207519531 C-15.098999977111816,119.14900207519531 -12.62399959564209,128.05999755859375 -18.06999969482422,128.05999755859375 C-23.514999389648438,128.05999755859375 -28.46500015258789,117.66300201416016 -28.46500015258789,117.66300201416016 C-28.46500015258789,117.66300201416016 -28.46500015258789,-130.53500366210938 -28.46500015258789,-130.53500366210938 C-28.46500015258789,-130.53500366210938 28.46500015258789,-130.53500366210938 28.46500015258789,-130.53500366210938z"></path></g><g opacity="1" transform="matrix(1,0,0,1,63.72700119018555,164.63900756835938)"><path fill="rgb(242,242,242)" fill-opacity="1" d=" M0.16599999368190765,-124.84600067138672 C0.16599999368190765,-124.84600067138672 -2.0820000171661377,-124.84600067138672 -2.0820000171661377,-124.84600067138672 C-2.0820000171661377,-124.84600067138672 -4.355000019073486,124.51899719238281 -4.355000019073486,124.51899719238281 C-4.355000019073486,124.51899719238281 -3.194000005722046,123.11499786376953 0.23600000143051147,123.28600311279297 C3.4140000343322754,123.44400024414062 4.354000091552734,124.84600067138672 4.354000091552734,124.84600067138672 C4.354000091552734,124.84600067138672 0.16599999368190765,-124.84600067138672 0.16599999368190765,-124.84600067138672z"></path></g><g opacity="1" transform="matrix(1,0,0,1,88.06099700927734,164.7530059814453)"><path fill="rgb(242,242,242)" fill-opacity="1" d=" M3.009000062942505,-124.68299865722656 C3.009000062942505,-124.68299865722656 -6.771999835968018,-124.73200225830078 -6.771999835968018,-124.73200225830078 C-6.771999835968018,-124.73200225830078 -2.114000082015991,124.7020034790039 -2.114000082015991,124.7020034790039 C-2.114000082015991,124.7020034790039 0.11299999803304672,122.73699951171875 2.6630001068115234,122.97200012207031 C4.7820000648498535,123.16899871826172 6.770999908447266,124.73200225830078 6.770999908447266,124.73200225830078 C6.770999908447266,124.73200225830078 3.009000062942505,-124.68299865722656 3.009000062942505,-124.68299865722656z"></path></g><g opacity="1" transform="matrix(1.7134599685668945,0,0,1,106.01699829101562,33.676998138427734)"><path fill="rgb(221,221,221)" fill-opacity="1" d=" M40.69300079345703,-5.031000137329102 C40.69300079345703,-5.031000137329102 -40.69300079345703,-5.031000137329102 -40.69300079345703,-5.031000137329102 C-40.69300079345703,-5.031000137329102 -40.69300079345703,5.031000137329102 -40.69300079345703,5.031000137329102 C-40.69300079345703,5.031000137329102 40.69300079345703,5.031000137329102 40.69300079345703,5.031000137329102 C40.69300079345703,5.031000137329102 40.69300079345703,-5.031000137329102 40.69300079345703,-5.031000137329102z"></path></g></g><g transform="matrix(1,0,0,1,204.21798706054688,267.4119873046875)" opacity="1" style="display: block;"><g opacity="1" transform="matrix(1,0,0,1,90.50700378417969,72.57599639892578)"><path fill="rgb(0,0,0)" fill-opacity="1" d=" M-294.72601318359375,-339.9880065917969 C-294.72601318359375,-339.9880065917969 365.27398681640625,-339.9880065917969 365.27398681640625,-339.9880065917969 C365.27398681640625,-339.9880065917969 365.27398681640625,320.0119934082031 365.27398681640625,320.0119934082031 C365.27398681640625,320.0119934082031 -294.72601318359375,320.0119934082031 -294.72601318359375,320.0119934082031 C-294.72601318359375,320.0119934082031 -294.72601318359375,-339.9880065917969 -294.72601318359375,-339.9880065917969z M-294.72601318359375,320.0119934082031 C-294.72601318359375,320.0119934082031 365.27398681640625,320.0119934082031 365.27398681640625,320.0119934082031 C365.27398681640625,320.0119934082031 365.27398681640625,-339.9880065917969 365.27398681640625,-339.9880065917969 C365.27398681640625,-339.9880065917969 -294.72601318359375,-339.9880065917969 -294.72601318359375,-339.9880065917969 C-294.72601318359375,-339.9880065917969 -294.72601318359375,320.0119934082031 -294.72601318359375,320.0119934082031z M55.70399856567383,-0.0010000000474974513 C55.70399856567383,24.35099983215332 30.763999938964844,44.090999603271484 -0.0010000000474974513,44.090999603271484 C-30.764999389648438,44.090999603271484 -55.70399856567383,24.35099983215332 -55.70399856567383,-0.0010000000474974513 C-55.70399856567383,-24.351999282836914 -30.764999389648438,-44.090999603271484 -0.0010000000474974513,-44.090999603271484 C30.763999938964844,-44.090999603271484 55.70399856567383,-24.351999282836914 55.70399856567383,-0.0010000000474974513z"></path><g opacity="1" transform="matrix(1,0,0,1,0,0)"></g></g><g opacity="1" transform="matrix(1,0,0,1,51.516998291015625,28.972999572753906)"><path fill="rgb(0,0,0)" fill-opacity="1" d=" M-255.73599243164062,-296.3840026855469 C-255.73599243164062,-296.3840026855469 404.2640075683594,-296.3840026855469 404.2640075683594,-296.3840026855469 C404.2640075683594,-296.3840026855469 404.2640075683594,363.6159973144531 404.2640075683594,363.6159973144531 C404.2640075683594,363.6159973144531 -255.73599243164062,363.6159973144531 -255.73599243164062,363.6159973144531 C-255.73599243164062,363.6159973144531 -255.73599243164062,-296.3840026855469 -255.73599243164062,-296.3840026855469z M-255.73599243164062,363.6159973144531 C-255.73599243164062,363.6159973144531 404.2640075683594,363.6159973144531 404.2640075683594,363.6159973144531 C404.2640075683594,363.6159973144531 404.2640075683594,-296.3840026855469 404.2640075683594,-296.3840026855469 C404.2640075683594,-296.3840026855469 -255.73599243164062,-296.3840026855469 -255.73599243164062,-296.3840026855469 C-255.73599243164062,-296.3840026855469 -255.73599243164062,363.6159973144531 -255.73599243164062,363.6159973144531z M-12.121000289916992,28.722999572753906 C-11.77400016784668,27.628000259399414 -15.048999786376953,-17.673999786376953 -16.924999237060547,-27.63599967956543 C-17.052000045776367,-28.30699920654297 -16.18400001525879,-28.722999572753906 -15.67300033569336,-28.23699951171875 C-15.67300033569336,-28.23699951171875 17.05299949645996,5.3420000076293945 17.05299949645996,5.3420000076293945 C17.05299949645996,5.3420000076293945 -12.121000289916992,28.722999572753906 -12.121000289916992,28.722999572753906z"></path><g opacity="1" transform="matrix(1,0,0,1,0,0)"></g></g><g opacity="1" transform="matrix(1,0,0,1,131.92300415039062,31.233999252319336)"><path fill="rgb(0,0,0)" fill-opacity="1" d=" M-336.1409912109375,-298.6449890136719 C-336.1409912109375,-298.6449890136719 323.8590087890625,-298.6449890136719 323.8590087890625,-298.6449890136719 C323.8590087890625,-298.6449890136719 323.8590087890625,361.3550109863281 323.8590087890625,361.3550109863281 C323.8590087890625,361.3550109863281 -336.1409912109375,361.3550109863281 -336.1409912109375,361.3550109863281 C-336.1409912109375,361.3550109863281 -336.1409912109375,-298.6449890136719 -336.1409912109375,-298.6449890136719z M-336.1409912109375,361.3550109863281 C-336.1409912109375,361.3550109863281 323.8590087890625,361.3550109863281 323.8590087890625,361.3550109863281 C323.8590087890625,361.3550109863281 323.8590087890625,-298.6449890136719 323.8590087890625,-298.6449890136719 C323.8590087890625,-298.6449890136719 -336.1409912109375,-298.6449890136719 -336.1409912109375,-298.6449890136719 C-336.1409912109375,-298.6449890136719 -336.1409912109375,361.3550109863281 -336.1409912109375,361.3550109863281z M-16.54800033569336,5.297999858856201 C-16.54800033569336,5.297999858856201 8.480999946594238,-20.32200050354004 15.253999710083008,-26.36400032043457 C15.758999824523926,-26.815000534057617 16.54800033569336,-26.388999938964844 16.45599937438965,-25.7189998626709 C16.45599937438965,-25.7189998626709 10.765999794006348,26.81399917602539 10.765999794006348,26.81399917602539 C10.765999794006348,26.81399917602539 -16.54800033569336,5.297999858856201 -16.54800033569336,5.297999858856201z"></path><g opacity="1" transform="matrix(1,0,0,1,0,0)"></g></g><g opacity="1" transform="matrix(1,0,0,1,71.56700134277344,66.18900299072266)"><path fill="rgb(255,255,255)" fill-opacity="1" d=" M-275.7860107421875,-333.6000061035156 C-275.7860107421875,-333.6000061035156 384.2139892578125,-333.6000061035156 384.2139892578125,-333.6000061035156 C384.2139892578125,-333.6000061035156 384.2139892578125,326.3999938964844 384.2139892578125,326.3999938964844 C384.2139892578125,326.3999938964844 -275.7860107421875,326.3999938964844 -275.7860107421875,326.3999938964844 C-275.7860107421875,326.3999938964844 -275.7860107421875,-333.6000061035156 -275.7860107421875,-333.6000061035156z M-275.7860107421875,326.3999938964844 C-275.7860107421875,326.3999938964844 384.2139892578125,326.3999938964844 384.2139892578125,326.3999938964844 C384.2139892578125,326.3999938964844 384.2139892578125,-333.6000061035156 384.2139892578125,-333.6000061035156 C384.2139892578125,-333.6000061035156 -275.7860107421875,-333.6000061035156 -275.7860107421875,-333.6000061035156 C-275.7860107421875,-333.6000061035156 -275.7860107421875,326.3999938964844 -275.7860107421875,326.3999938964844z M12.362000465393066,-0.0010000000474974513 C12.362000465393066,6.826000213623047 6.826000213623047,12.362000465393066 -0.0010000000474974513,12.362000465393066 C-6.828000068664551,12.362000465393066 -12.362000465393066,6.826000213623047 -12.362000465393066,-0.0010000000474974513 C-12.362000465393066,-6.828000068664551 -6.828000068664551,-12.362000465393066 -0.0010000000474974513,-12.362000465393066 C6.826000213623047,-12.362000465393066 12.362000465393066,-6.828000068664551 12.362000465393066,-0.0010000000474974513z"></path><g opacity="1" transform="matrix(1,0,0,1,0,0)"></g></g><g opacity="1" transform="matrix(1,0,0,1,117.69200134277344,66.18900299072266)"><path fill="rgb(255,255,255)" fill-opacity="1" d=" M-321.9110107421875,-333.6000061035156 C-321.9110107421875,-333.6000061035156 338.0889892578125,-333.6000061035156 338.0889892578125,-333.6000061035156 C338.0889892578125,-333.6000061035156 338.0889892578125,326.3999938964844 338.0889892578125,326.3999938964844 C338.0889892578125,326.3999938964844 -321.9110107421875,326.3999938964844 -321.9110107421875,326.3999938964844 C-321.9110107421875,326.3999938964844 -321.9110107421875,-333.6000061035156 -321.9110107421875,-333.6000061035156z M-321.9110107421875,326.3999938964844 C-321.9110107421875,326.3999938964844 338.0889892578125,326.3999938964844 338.0889892578125,326.3999938964844 C338.0889892578125,326.3999938964844 338.0889892578125,-333.6000061035156 338.0889892578125,-333.6000061035156 C338.0889892578125,-333.6000061035156 -321.9110107421875,-333.6000061035156 -321.9110107421875,-333.6000061035156 C-321.9110107421875,-333.6000061035156 -321.9110107421875,326.3999938964844 -321.9110107421875,326.3999938964844z M12.362000465393066,-0.0010000000474974513 C12.362000465393066,6.826000213623047 6.826000213623047,12.362000465393066 -0.0010000000474974513,12.362000465393066 C-6.828000068664551,12.362000465393066 -12.362000465393066,6.826000213623047 -12.362000465393066,-0.0010000000474974513 C-12.362000465393066,-6.828000068664551 -6.828000068664551,-12.362000465393066 -0.0010000000474974513,-12.362000465393066 C6.826000213623047,-12.362000465393066 12.362000465393066,-6.828000068664551 12.362000465393066,-0.0010000000474974513z"></path><g opacity="1" transform="matrix(1,0,0,1,0,0)"></g></g><g opacity="1" transform="matrix(1,0,0,1,96.70600128173828,208.49600219726562)"><path fill="rgb(0,0,0)" fill-opacity="1" d=" M-300.92498779296875,-475.9079895019531 C-300.92498779296875,-475.9079895019531 359.07501220703125,-475.9079895019531 359.07501220703125,-475.9079895019531 C359.07501220703125,-475.9079895019531 359.07501220703125,184.0919952392578 359.07501220703125,184.0919952392578 C359.07501220703125,184.0919952392578 -300.92498779296875,184.0919952392578 -300.92498779296875,184.0919952392578 C-300.92498779296875,184.0919952392578 -300.92498779296875,-475.9079895019531 -300.92498779296875,-475.9079895019531z M-300.92498779296875,184.0919952392578 C-300.92498779296875,184.0919952392578 359.07501220703125,184.0919952392578 359.07501220703125,184.0919952392578 C359.07501220703125,184.0919952392578 359.07501220703125,-475.9079895019531 359.07501220703125,-475.9079895019531 C359.07501220703125,-475.9079895019531 -300.92498779296875,-475.9079895019531 -300.92498779296875,-475.9079895019531 C-300.92498779296875,-475.9079895019531 -300.92498779296875,184.0919952392578 -300.92498779296875,184.0919952392578z M14.093000411987305,-95.32499694824219 C14.093000411987305,-95.32499694824219 42.696998596191406,-57.81800079345703 44.64799880981445,33.65800094604492 C44.9119987487793,46.06999969482422 58.75299835205078,58.96500015258789 55.29199981689453,66.64900207519531 C41.529998779296875,97.20800018310547 -12.173999786376953,91.0260009765625 -32.185001373291016,83.94200134277344 C-42.23500061035156,80.38400268554688 -57.29100036621094,81.48699951171875 -58.41899871826172,70.88600158691406 C-58.75299835205078,67.74700164794922 -51.10900115966797,54.08100128173828 -51.375999450683594,50.13800048828125 C-52.694000244140625,30.702999114990234 -52.49599838256836,1.909999966621399 -43.821998596191406,-32.22999954223633 C-41.138999938964844,-42.79100036621094 -32.99399948120117,-81.26499938964844 -19.33799934387207,-92.97100067138672 C-14.394000053405762,-97.20899963378906 14.093000411987305,-95.32499694824219 14.093000411987305,-95.32499694824219z"></path><g opacity="1" transform="matrix(1,0,0,1,0,0)"></g></g><g opacity="1" transform="matrix(1,0,0,1,150.4709930419922,90.74700164794922)"><path fill="rgb(0,0,0)" fill-opacity="1" d=" M-354.69000244140625,-358.15899658203125 C-354.69000244140625,-358.15899658203125 305.30999755859375,-358.15899658203125 305.30999755859375,-358.15899658203125 C305.30999755859375,-358.15899658203125 305.30999755859375,301.84100341796875 305.30999755859375,301.84100341796875 C305.30999755859375,301.84100341796875 -354.69000244140625,301.84100341796875 -354.69000244140625,301.84100341796875 C-354.69000244140625,301.84100341796875 -354.69000244140625,-358.15899658203125 -354.69000244140625,-358.15899658203125z M-354.69000244140625,301.84100341796875 C-354.69000244140625,301.84100341796875 305.30999755859375,301.84100341796875 305.30999755859375,301.84100341796875 C305.30999755859375,301.84100341796875 305.30999755859375,-358.15899658203125 305.30999755859375,-358.15899658203125 C305.30999755859375,-358.15899658203125 -354.69000244140625,-358.15899658203125 -354.69000244140625,-358.15899658203125 C-354.69000244140625,-358.15899658203125 -354.69000244140625,301.84100341796875 -354.69000244140625,301.84100341796875z M-30.184999465942383,-3.558000087738037 C-29.586000442504883,-3.634000062942505 30.184999465942383,3.634000062942505 30.184999465942383,3.634000062942505"></path><g opacity="1" transform="matrix(1,0,0,1,0,0)"></g></g><g opacity="1" transform="matrix(1,0,0,1,150.4669952392578,90.78700256347656)"><path fill="rgb(0,0,0)" fill-opacity="1" d=" M-354.6860046386719,-358.1990051269531 C-354.6860046386719,-358.1990051269531 305.3139953613281,-358.1990051269531 305.3139953613281,-358.1990051269531 C305.3139953613281,-358.1990051269531 305.3139953613281,301.8009948730469 305.3139953613281,301.8009948730469 C305.3139953613281,301.8009948730469 -354.6860046386719,301.8009948730469 -354.6860046386719,301.8009948730469 C-354.6860046386719,301.8009948730469 -354.6860046386719,-358.1990051269531 -354.6860046386719,-358.1990051269531z M-354.6860046386719,301.8009948730469 C-354.6860046386719,301.8009948730469 305.3139953613281,301.8009948730469 305.3139953613281,301.8009948730469 C305.3139953613281,301.8009948730469 305.3139953613281,-358.1990051269531 305.3139953613281,-358.1990051269531 C305.3139953613281,-358.1990051269531 -354.6860046386719,-358.1990051269531 -354.6860046386719,-358.1990051269531 C-354.6860046386719,-358.1990051269531 -354.6860046386719,301.8009948730469 -354.6860046386719,301.8009948730469z M-30.187999725341797,-3.6559998989105225 C-25.082000732421875,-3.4769999980926514 -20.062999725341797,-2.927999973297119 -15.01200008392334,-2.447999954223633 C-9.970999717712402,-1.9259999990463257 -4.956999778747559,-1.190999984741211 0.06599999964237213,-0.5230000019073486 C10.114999771118164,0.7919999957084656 20.159000396728516,2.1449999809265137 30.197999954223633,3.5350000858306885 C30.229000091552734,3.5390000343322754 30.250999450683594,3.571000099182129 30.246999740600586,3.6029999256134033 C30.243000030517578,3.634000062942505 30.21299934387207,3.6559998989105225 30.18199920654297,3.6519999504089355 C30.18199920654297,3.6519999504089355 -0.04600000008940697,0.4090000092983246 -0.04600000008940697,0.4090000092983246 C-5.084000110626221,-0.13199999928474426 -10.128000259399414,-0.6060000061988831 -15.149999618530273,-1.281000018119812 C-20.163999557495117,-1.9739999771118164 -25.198999404907227,-2.690000057220459 -30.17300033569336,-3.5390000343322754 C-30.17300033569336,-3.5390000343322754 -30.201000213623047,-3.5439999103546143 -30.201000213623047,-3.5439999103546143 C-30.231000900268555,-3.5490000247955322 -30.250999450683594,-3.578000068664551 -30.246000289916992,-3.6080000400543213 C-30.240999221801758,-3.635999917984009 -30.215999603271484,-3.6570000648498535 -30.187999725341797,-3.6559998989105225z"></path><g opacity="1" transform="matrix(1,0,0,1,0,0)"></g></g><g opacity="1" transform="matrix(1,0,0,1,148.57400512695312,97.41999816894531)"><path fill="rgb(0,0,0)" fill-opacity="1" d=" M-352.7929992675781,-364.83099365234375 C-352.7929992675781,-364.83099365234375 307.2070007324219,-364.83099365234375 307.2070007324219,-364.83099365234375 C307.2070007324219,-364.83099365234375 307.2070007324219,295.16900634765625 307.2070007324219,295.16900634765625 C307.2070007324219,295.16900634765625 -352.7929992675781,295.16900634765625 -352.7929992675781,295.16900634765625 C-352.7929992675781,295.16900634765625 -352.7929992675781,-364.83099365234375 -352.7929992675781,-364.83099365234375z M-352.7929992675781,295.16900634765625 C-352.7929992675781,295.16900634765625 307.2070007324219,295.16900634765625 307.2070007324219,295.16900634765625 C307.2070007324219,295.16900634765625 307.2070007324219,-364.83099365234375 307.2070007324219,-364.83099365234375 C307.2070007324219,-364.83099365234375 -352.7929992675781,-364.83099365234375 -352.7929992675781,-364.83099365234375 C-352.7929992675781,-364.83099365234375 -352.7929992675781,295.16900634765625 -352.7929992675781,295.16900634765625z M-29.174999237060547,-6.5 C-29.174999237060547,-6.5 29.174999237060547,6.5 29.174999237060547,6.5"></path><g opacity="1" transform="matrix(1,0,0,1,0,0)"></g></g><g opacity="1" transform="matrix(1,0,0,1,148.5749969482422,97.4209976196289)"><path fill="rgb(0,0,0)" fill-opacity="1" d=" M-352.79400634765625,-364.8320007324219 C-352.79400634765625,-364.8320007324219 307.20599365234375,-364.8320007324219 307.20599365234375,-364.8320007324219 C307.20599365234375,-364.8320007324219 307.20599365234375,295.1679992675781 307.20599365234375,295.1679992675781 C307.20599365234375,295.1679992675781 -352.79400634765625,295.1679992675781 -352.79400634765625,295.1679992675781 C-352.79400634765625,295.1679992675781 -352.79400634765625,-364.8320007324219 -352.79400634765625,-364.8320007324219z M-352.79400634765625,295.1679992675781 C-352.79400634765625,295.1679992675781 307.20599365234375,295.1679992675781 307.20599365234375,295.1679992675781 C307.20599365234375,295.1679992675781 307.20599365234375,-364.8320007324219 307.20599365234375,-364.8320007324219 C307.20599365234375,-364.8320007324219 -352.79400634765625,-364.8320007324219 -352.79400634765625,-364.8320007324219 C-352.79400634765625,-364.8320007324219 -352.79400634765625,295.1679992675781 -352.79400634765625,295.1679992675781z M-29.163000106811523,-6.559000015258789 C-24.226999282836914,-5.803999900817871 -19.347000122070312,-4.802999973297119 -14.461000442504883,-3.8239998817443848 C-9.581999778747559,-2.815999984741211 -4.745999813079834,-1.6050000190734863 0.10199999809265137,-0.45899999141693115 C9.803999900817871,1.809000015258789 19.5,4.109000205993652 29.187999725341797,6.440999984741211 C29.2189998626709,6.448999881744385 29.238000869750977,6.48199987411499 29.229999542236328,6.513000011444092 C29.222999572753906,6.545000076293945 29.19300079345703,6.563000202178955 29.163000106811523,6.557000160217285 C19.399999618530273,4.556000232696533 9.645000457763672,2.5239999294281006 -0.10300000011920929,0.45899999141693115 C-4.979000091552734,-0.5630000233650208 -9.871000289916992,-1.5180000066757202 -14.715999603271484,-2.6760001182556152 C-19.55500030517578,-3.865000009536743 -24.39900016784668,-5.031000137329102 -29.18899917602539,-6.442999839782715 C-29.219999313354492,-6.453000068664551 -29.238000869750977,-6.485000133514404 -29.22800064086914,-6.515999794006348 C-29.219999313354492,-6.544000148773193 -29.191999435424805,-6.563000202178955 -29.163000106811523,-6.559000015258789z"></path><g opacity="1" transform="matrix(1,0,0,1,0,0)"></g></g><g opacity="1" transform="matrix(1,0,0,1,145.26300048828125,102.927001953125)"><path fill="rgb(0,0,0)" fill-opacity="1" d=" M-349.4809875488281,-370.3380126953125 C-349.4809875488281,-370.3380126953125 310.5190124511719,-370.3380126953125 310.5190124511719,-370.3380126953125 C310.5190124511719,-370.3380126953125 310.5190124511719,289.6619873046875 310.5190124511719,289.6619873046875 C310.5190124511719,289.6619873046875 -349.4809875488281,289.6619873046875 -349.4809875488281,289.6619873046875 C-349.4809875488281,289.6619873046875 -349.4809875488281,-370.3380126953125 -349.4809875488281,-370.3380126953125z M-349.4809875488281,289.6619873046875 C-349.4809875488281,289.6619873046875 310.5190124511719,289.6619873046875 310.5190124511719,289.6619873046875 C310.5190124511719,289.6619873046875 310.5190124511719,-370.3380126953125 310.5190124511719,-370.3380126953125 C310.5190124511719,-370.3380126953125 -349.4809875488281,-370.3380126953125 -349.4809875488281,-370.3380126953125 C-349.4809875488281,-370.3380126953125 -349.4809875488281,289.6619873046875 -349.4809875488281,289.6619873046875z M-27.59600067138672,-9.852999687194824 C-27.159000396728516,-9.800999641418457 27.59600067138672,9.852999687194824 27.59600067138672,9.852999687194824"></path><g opacity="1" transform="matrix(1,0,0,1,0,0)"></g></g><g opacity="1" transform="matrix(1,0,0,1,145.25900268554688,102.927001953125)"><path fill="rgb(0,0,0)" fill-opacity="1" d=" M-349.4779968261719,-370.3380126953125 C-349.4779968261719,-370.3380126953125 310.5220031738281,-370.3380126953125 310.5220031738281,-370.3380126953125 C310.5220031738281,-370.3380126953125 310.5220031738281,289.6619873046875 310.5220031738281,289.6619873046875 C310.5220031738281,289.6619873046875 -349.4779968261719,289.6619873046875 -349.4779968261719,289.6619873046875 C-349.4779968261719,289.6619873046875 -349.4779968261719,-370.3380126953125 -349.4779968261719,-370.3380126953125z M-349.4779968261719,289.6619873046875 C-349.4779968261719,289.6619873046875 310.5220031738281,289.6619873046875 310.5220031738281,289.6619873046875 C310.5220031738281,289.6619873046875 310.5220031738281,-370.3380126953125 310.5220031738281,-370.3380126953125 C310.5220031738281,-370.3380126953125 -349.4779968261719,-370.3380126953125 -349.4779968261719,-370.3380126953125 C-349.4779968261719,-370.3380126953125 -349.4779968261719,289.6619873046875 -349.4779968261719,289.6619873046875z M-27.584999084472656,-9.911999702453613 C-22.829999923706055,-8.63599967956543 -18.226999282836914,-7.054999828338623 -13.583000183105469,-5.519999980926514 C-8.956999778747559,-3.9509999752044678 -4.4029998779296875,-2.181999921798706 0.17399999499320984,-0.47699999809265137 C9.333999633789062,2.9130001068115234 18.48200035095215,6.339000225067139 27.618000030517578,9.79800033569336 C27.648000717163086,9.8100004196167 27.663999557495117,9.843000411987305 27.652999877929688,9.873000144958496 C27.642000198364258,9.902999877929688 27.607999801635742,9.918000221252441 27.57900047302246,9.906999588012695 C27.57900047302246,9.906999588012695 -0.14399999380111694,0.40700000524520874 -0.14399999380111694,0.40700000524520874 C-4.763000011444092,-1.1790000200271606 -9.404999732971191,-2.6989998817443848 -13.979000091552734,-4.413000106811523 C-18.538999557495117,-6.145999908447266 -23.118999481201172,-7.894999980926514 -27.600000381469727,-9.795000076293945 C-27.600000381469727,-9.795000076293945 -27.62299919128418,-9.803999900817871 -27.62299919128418,-9.803999900817871 C-27.652000427246094,-9.815999984741211 -27.665000915527344,-9.848999977111816 -27.652999877929688,-9.878000259399414 C-27.642000198364258,-9.904000282287598 -27.61199951171875,-9.918999671936035 -27.584999084472656,-9.911999702453613z"></path><g opacity="1" transform="matrix(1,0,0,1,0,0)"></g></g><g opacity="1" transform="matrix(1,0,0,1,30.777999877929688,96.50499725341797)"><path fill="rgb(0,0,0)" fill-opacity="1" d=" M-234.99600219726562,-363.9159851074219 C-234.99600219726562,-363.9159851074219 425.0039978027344,-363.9159851074219 425.0039978027344,-363.9159851074219 C425.0039978027344,-363.9159851074219 425.0039978027344,296.0840148925781 425.0039978027344,296.0840148925781 C425.0039978027344,296.0840148925781 -234.99600219726562,296.0840148925781 -234.99600219726562,296.0840148925781 C-234.99600219726562,296.0840148925781 -234.99600219726562,-363.9159851074219 -234.99600219726562,-363.9159851074219z M-234.99600219726562,296.0840148925781 C-234.99600219726562,296.0840148925781 425.0039978027344,296.0840148925781 425.0039978027344,296.0840148925781 C425.0039978027344,296.0840148925781 425.0039978027344,-363.9159851074219 425.0039978027344,-363.9159851074219 C425.0039978027344,-363.9159851074219 -234.99600219726562,-363.9159851074219 -234.99600219726562,-363.9159851074219 C-234.99600219726562,-363.9159851074219 -234.99600219726562,296.0840148925781 -234.99600219726562,296.0840148925781z M30.46500015258789,-2.572999954223633 C29.86400032043457,-2.678999900817871 -30.46500015258789,2.677999973297119 -30.46500015258789,2.677999973297119"></path><g opacity="1" transform="matrix(1,0,0,1,0,0)"></g></g><g opacity="1" transform="matrix(1,0,0,1,30.7810001373291,96.55699920654297)"><path fill="rgb(0,0,0)" fill-opacity="1" d=" M-235,-363.9679870605469 C-235,-363.9679870605469 425,-363.9679870605469 425,-363.9679870605469 C425,-363.9679870605469 425,296.0320129394531 425,296.0320129394531 C425,296.0320129394531 -235,296.0320129394531 -235,296.0320129394531 C-235,296.0320129394531 -235,-363.9679870605469 -235,-363.9679870605469z M-235,296.0320129394531 C-235,296.0320129394531 425,296.0320129394531 425,296.0320129394531 C425,296.0320129394531 425,-363.9679870605469 425,-363.9679870605469 C425,-363.9679870605469 -235,-363.9679870605469 -235,-363.9679870605469 C-235,-363.9679870605469 -235,296.0320129394531 -235,296.0320129394531z M30.451000213623047,-2.563999891281128 C25.424999237060547,-1.8680000305175781 20.33799934387207,-1.3070000410079956 15.276000022888184,-0.7720000147819519 C10.206000328063965,-0.2549999952316284 5.117000102996826,0.050999999046325684 0.03400000184774399,0.42899999022483826 C0.03400000184774399,0.42899999022483826 -30.46299934387207,2.687000036239624 -30.46299934387207,2.687000036239624 C-30.496999740600586,2.690000057220459 -30.525999069213867,2.6649999618530273 -30.527999877929688,2.63100004196167 C-30.5310001373291,2.5980000495910645 -30.506999969482422,2.569000005722046 -30.474000930786133,2.565999984741211 C-30.474000930786133,2.565999984741211 -15.265000343322754,0.9750000238418579 -15.265000343322754,0.9750000238418579 C-15.265000343322754,0.9750000238418579 -0.050999999046325684,-0.5450000166893005 -0.050999999046325684,-0.5450000166893005 C5.020999908447266,-1.0540000200271606 10.086000442504883,-1.6319999694824219 15.170999526977539,-1.9900000095367432 C20.266000747680664,-2.302000045776367 25.32900047302246,-2.690000057220459 30.472000122070312,-2.684000015258789 C30.503999710083008,-2.684000015258789 30.5310001373291,-2.6579999923706055 30.5310001373291,-2.625999927520752 C30.5310001373291,-2.5959999561309814 30.509000778198242,-2.572000026702881 30.479999542236328,-2.568000078201294 C30.479999542236328,-2.568000078201294 30.451000213623047,-2.563999891281128 30.451000213623047,-2.563999891281128z"></path><g opacity="1" transform="matrix(1,0,0,1,0,0)"></g></g><g opacity="1" transform="matrix(1,0,0,1,32.50699996948242,103.75700378417969)"><path fill="rgb(0,0,0)" fill-opacity="1" d=" M-236.7259979248047,-371.16900634765625 C-236.7259979248047,-371.16900634765625 423.27398681640625,-371.16900634765625 423.27398681640625,-371.16900634765625 C423.27398681640625,-371.16900634765625 423.27398681640625,288.83099365234375 423.27398681640625,288.83099365234375 C423.27398681640625,288.83099365234375 -236.7259979248047,288.83099365234375 -236.7259979248047,288.83099365234375 C-236.7259979248047,288.83099365234375 -236.7259979248047,-371.16900634765625 -236.7259979248047,-371.16900634765625z M-236.7259979248047,288.83099365234375 C-236.7259979248047,288.83099365234375 423.27398681640625,288.83099365234375 423.27398681640625,288.83099365234375 C423.27398681640625,288.83099365234375 423.27398681640625,-371.16900634765625 423.27398681640625,-371.16900634765625 C423.27398681640625,-371.16900634765625 -236.7259979248047,-371.16900634765625 -236.7259979248047,-371.16900634765625 C-236.7259979248047,-371.16900634765625 -236.7259979248047,288.83099365234375 -236.7259979248047,288.83099365234375z M29.527000427246094,-5.783999919891357 C29.527000427246094,-5.783999919891357 -29.527000427246094,5.783999919891357 -29.527000427246094,5.783999919891357"></path><g opacity="1" transform="matrix(1,0,0,1,0,0)"></g></g><g opacity="1" transform="matrix(1,0,0,1,32.505001068115234,103.75800323486328)"><path fill="rgb(0,0,0)" fill-opacity="1" d=" M-236.7239990234375,-371.16900634765625 C-236.7239990234375,-371.16900634765625 423.2760009765625,-371.16900634765625 423.2760009765625,-371.16900634765625 C423.2760009765625,-371.16900634765625 423.2760009765625,288.83099365234375 423.2760009765625,288.83099365234375 C423.2760009765625,288.83099365234375 -236.7239990234375,288.83099365234375 -236.7239990234375,288.83099365234375 C-236.7239990234375,288.83099365234375 -236.7239990234375,-371.16900634765625 -236.7239990234375,-371.16900634765625z M-236.7239990234375,288.83099365234375 C-236.7239990234375,288.83099365234375 423.2760009765625,288.83099365234375 423.2760009765625,288.83099365234375 C423.2760009765625,288.83099365234375 423.2760009765625,-371.16900634765625 423.2760009765625,-371.16900634765625 C423.2760009765625,-371.16900634765625 -236.7239990234375,-371.16900634765625 -236.7239990234375,-371.16900634765625 C-236.7239990234375,-371.16900634765625 -236.7239990234375,288.83099365234375 -236.7239990234375,288.83099365234375z M29.541000366210938,-5.724999904632568 C24.687000274658203,-4.416999816894531 19.783000946044922,-3.367000102996826 14.883000373840332,-2.2920000553131104 C9.977999687194824,-1.25 5.03000020980835,-0.41999998688697815 0.09600000083446503,0.4790000021457672 C0.09600000083446503,0.4790000021457672 -14.70199966430664,3.191999912261963 -14.70199966430664,3.191999912261963 C-14.70199966430664,3.191999912261963 -29.51300048828125,5.8429999351501465 -29.51300048828125,5.8429999351501465 C-29.54599952697754,5.848999977111816 -29.577999114990234,5.828000068664551 -29.583999633789062,5.795000076293945 C-29.59000015258789,5.76200008392334 -29.56800079345703,5.730999946594238 -29.53700065612793,5.723999977111816 C-29.53700065612793,5.723999977111816 -14.819999694824219,2.5910000801086426 -14.819999694824219,2.5910000801086426 C-14.819999694824219,2.5910000801086426 -0.09200000017881393,-0.47999998927116394 -0.09200000017881393,-0.47999998927116394 C4.816999912261963,-1.5089999437332153 9.711999893188477,-2.6070001125335693 14.64799976348877,-3.493000030517578 C19.590999603271484,-4.3470001220703125 24.52899932861328,-5.223999977111816 29.51799964904785,-5.84499979019165 C29.551000595092773,-5.848999977111816 29.582000732421875,-5.824999809265137 29.586000442504883,-5.790999889373779 C29.59000015258789,-5.761000156402588 29.56999969482422,-5.732999801635742 29.541000366210938,-5.724999904632568z"></path><g opacity="1" transform="matrix(1,0,0,1,0,0)"></g></g><g opacity="1" transform="matrix(1,0,0,1,35.691001892089844,109.80400085449219)"><path fill="rgb(0,0,0)" fill-opacity="1" d=" M-239.91000366210938,-377.21600341796875 C-239.91000366210938,-377.21600341796875 420.09100341796875,-377.21600341796875 420.09100341796875,-377.21600341796875 C420.09100341796875,-377.21600341796875 420.09100341796875,282.78399658203125 420.09100341796875,282.78399658203125 C420.09100341796875,282.78399658203125 -239.91000366210938,282.78399658203125 -239.91000366210938,282.78399658203125 C-239.91000366210938,282.78399658203125 -239.91000366210938,-377.21600341796875 -239.91000366210938,-377.21600341796875z M-239.91000366210938,282.78399658203125 C-239.91000366210938,282.78399658203125 420.09100341796875,282.78399658203125 420.09100341796875,282.78399658203125 C420.09100341796875,282.78399658203125 420.09100341796875,-377.21600341796875 420.09100341796875,-377.21600341796875 C420.09100341796875,-377.21600341796875 -239.91000366210938,-377.21600341796875 -239.91000366210938,-377.21600341796875 C-239.91000366210938,-377.21600341796875 -239.91000366210938,282.78399658203125 -239.91000366210938,282.78399658203125z M28.027999877929688,-9.447999954223633 C27.58799934387207,-9.40999984741211 -28.027999877929688,9.447999954223633 -28.027999877929688,9.447999954223633"></path><g opacity="1" transform="matrix(1,0,0,1,0,0)"></g></g><g opacity="1" transform="matrix(1,0,0,1,35.69300079345703,109.80400085449219)"><path fill="rgb(0,0,0)" fill-opacity="1" d=" M-239.91200256347656,-377.2149963378906 C-239.91200256347656,-377.2149963378906 420.0880126953125,-377.2149963378906 420.0880126953125,-377.2149963378906 C420.0880126953125,-377.2149963378906 420.0880126953125,282.7850036621094 420.0880126953125,282.7850036621094 C420.0880126953125,282.7850036621094 -239.91200256347656,282.7850036621094 -239.91200256347656,282.7850036621094 C-239.91200256347656,282.7850036621094 -239.91200256347656,-377.2149963378906 -239.91200256347656,-377.2149963378906z M-239.91200256347656,282.7850036621094 C-239.91200256347656,282.7850036621094 420.0880126953125,282.7850036621094 420.0880126953125,282.7850036621094 C420.0880126953125,282.7850036621094 420.0880126953125,-377.2149963378906 420.0880126953125,-377.2149963378906 C420.0880126953125,-377.2149963378906 -239.91200256347656,-377.2149963378906 -239.91200256347656,-377.2149963378906 C-239.91200256347656,-377.2149963378906 -239.91200256347656,282.7850036621094 -239.91200256347656,282.7850036621094z M28.0310001373291,-9.38599967956543 C23.479000091552734,-7.543000221252441 18.825000762939453,-5.857999801635742 14.192000389099121,-4.188000202178955 C9.54699993133545,-2.5380001068115234 4.833000183105469,-1.0889999866485596 0.1420000046491623,0.4269999861717224 C0.1420000046491623,0.4269999861717224 -13.925999641418457,4.993000030517578 -13.925999641418457,4.993000030517578 C-13.925999641418457,4.993000030517578 -28.01099967956543,9.506999969482422 -28.01099967956543,9.506999969482422 C-28.042999267578125,9.515999794006348 -28.07699966430664,9.49899959564209 -28.08799934387207,9.467000007629395 C-28.097999572753906,9.4350004196167 -28.08099937438965,9.402000427246094 -28.049999237060547,9.390000343322754 C-28.049999237060547,9.390000343322754 -14.121000289916992,4.414000034332275 -14.121000289916992,4.414000034332275 C-14.121000289916992,4.414000034332275 -0.1720000058412552,-0.5 -0.1720000058412552,-0.5 C4.478000164031982,-2.1410000324249268 9.104000091552734,-3.8480000495910645 13.802000045776367,-5.3460001945495605 C18.51799964904785,-6.808000087738037 23.191999435424805,-8.319000244140625 28.020000457763672,-9.508000373840332 C28.052000045776367,-9.515999794006348 28.083999633789062,-9.496000289916992 28.091999053955078,-9.46500015258789 C28.097999572753906,-9.435999870300293 28.08300018310547,-9.406999588012695 28.055999755859375,-9.397000312805176 C28.055999755859375,-9.397000312805176 28.0310001373291,-9.38599967956543 28.0310001373291,-9.38599967956543z"></path><g opacity="1" transform="matrix(1,0,0,1,0,0)"></g></g><g opacity="1" transform="matrix(1,0,0,1,96.01399993896484,83.30599975585938)"><path fill="rgb(60,61,0)" fill-opacity="1" d=" M-300.2330017089844,-350.7170104980469 C-300.2330017089844,-350.7170104980469 359.7669982910156,-350.7170104980469 359.7669982910156,-350.7170104980469 C359.7669982910156,-350.7170104980469 359.7669982910156,309.2829895019531 359.7669982910156,309.2829895019531 C359.7669982910156,309.2829895019531 -300.2330017089844,309.2829895019531 -300.2330017089844,309.2829895019531 C-300.2330017089844,309.2829895019531 -300.2330017089844,-350.7170104980469 -300.2330017089844,-350.7170104980469z M-300.2330017089844,309.2829895019531 C-300.2330017089844,309.2829895019531 359.7669982910156,309.2829895019531 359.7669982910156,309.2829895019531 C359.7669982910156,309.2829895019531 359.7669982910156,-350.7170104980469 359.7669982910156,-350.7170104980469 C359.7669982910156,-350.7170104980469 -300.2330017089844,-350.7170104980469 -300.2330017089844,-350.7170104980469 C-300.2330017089844,-350.7170104980469 -300.2330017089844,309.2829895019531 -300.2330017089844,309.2829895019531z M0.6809999942779541,5.710000038146973 C0.6809999942779541,5.710000038146973 -7.014999866485596,-1.9850000143051147 -7.014999866485596,-1.9850000143051147 C-8.388999938964844,-3.3589999675750732 -7.415999889373779,-5.710000038146973 -5.4710001945495605,-5.710000038146973 C-5.4710001945495605,-5.710000038146973 5.5289998054504395,-5.710000038146973 5.5289998054504395,-5.710000038146973 C7.377999782562256,-5.710000038146973 8.388999938964844,-3.553999900817871 7.205999851226807,-2.132999897003174 C7.205999851226807,-2.132999897003174 0.6809999942779541,5.710000038146973 0.6809999942779541,5.710000038146973z"></path><g opacity="1" transform="matrix(1,0,0,1,0,0)"></g></g><g opacity="1" transform="matrix(1,0,0,1,96.88899993896484,95.91100311279297)"><path fill="rgb(60,61,0)" fill-opacity="1" d=" M-301.10699462890625,-363.322998046875 C-301.10699462890625,-363.322998046875 358.89300537109375,-363.322998046875 358.89300537109375,-363.322998046875 C358.89300537109375,-363.322998046875 358.89300537109375,296.677001953125 358.89300537109375,296.677001953125 C358.89300537109375,296.677001953125 -301.10699462890625,296.677001953125 -301.10699462890625,296.677001953125 C-301.10699462890625,296.677001953125 -301.10699462890625,-363.322998046875 -301.10699462890625,-363.322998046875z M-301.10699462890625,296.677001953125 C-301.10699462890625,296.677001953125 358.89300537109375,296.677001953125 358.89300537109375,296.677001953125 C358.89300537109375,296.677001953125 358.89300537109375,-363.322998046875 358.89300537109375,-363.322998046875 C358.89300537109375,-363.322998046875 -301.10699462890625,-363.322998046875 -301.10699462890625,-363.322998046875 C-301.10699462890625,-363.322998046875 -301.10699462890625,296.677001953125 -301.10699462890625,296.677001953125z M-0.3100000023841858,-11.819000244140625 C-0.3100000023841858,-11.819000244140625 -0.3100000023841858,6.313000202178955 -0.3100000023841858,6.313000202178955 C-0.3100000023841858,6.313000202178955 -7.288000106811523,11.819000244140625 -7.288000106811523,11.819000244140625 C-7.288000106811523,11.819000244140625 -0.03400000184774399,6.659999847412109 -0.03400000184774399,6.659999847412109 C-0.03400000184774399,6.659999847412109 7.288000106811523,11.819000244140625 7.288000106811523,11.819000244140625 C7.288000106811523,11.819000244140625 0.17399999499320984,6.313000202178955 0.17399999499320984,6.313000202178955 C0.17399999499320984,6.313000202178955 -0.3100000023841858,-11.819000244140625 -0.3100000023841858,-11.819000244140625z"></path><g opacity="1" transform="matrix(1,0,0,1,0,0)"></g></g><g opacity="1" transform="matrix(1,0,0,1,96.447998046875,118.677001953125)"><path fill="rgb(147,149,39)" fill-opacity="1" d=" M20.2189998626709,1.9249999523162842 C20.2189998626709,1.9249999523162842 -19.70400047302246,4.927000045776367 -19.70400047302246,4.927000045776367 C-21.59600067138672,5.070000171661377 -23.243999481201172,3.6510000228881836 -23.38599967956543,1.7580000162124634 C-23.52899932861328,-0.1340000033378601 -22.110000610351562,-1.7829999923706055 -20.218000411987305,-1.9259999990463257 C-20.218000411987305,-1.9259999990463257 19.70400047302246,-4.927999973297119 19.70400047302246,-4.927999973297119 C21.59600067138672,-5.070000171661377 23.2450008392334,-3.6510000228881836 23.386999130249023,-1.7599999904632568 C23.530000686645508,0.13300000131130219 22.111000061035156,1.781999945640564 20.2189998626709,1.9249999523162842z"></path></g><g opacity="1" transform="matrix(1,0,0,1,97.1500015258789,129.16299438476562)"><path fill="rgb(147,149,39)" fill-opacity="1" d=" M-9.010000228881836,-6.374000072479248 C-9.010000228881836,-6.374000072479248 -6.051000118255615,8.628000259399414 9.010000228881836,2.052999973297119 C9.010000228881836,2.052999973297119 4.590000152587891,2.5290000438690186 0.2980000078678131,-3.5929999351501465 C-3.2320001125335693,-8.628000259399414 -9.010000228881836,-6.374000072479248 -9.010000228881836,-6.374000072479248z"></path></g><g opacity="1" transform="matrix(1,0,0,1,77.12000274658203,130.2220001220703)"><path fill="rgb(147,149,39)" fill-opacity="1" d=" M11.343999862670898,-7.605000019073486 C11.343999862670898,-7.605000019073486 11.444000244140625,3.815000057220459 2.816999912261963,6.855999946594238 C-5.809000015258789,9.89799976348877 -11.444000244140625,4.861999988555908 -11.444000244140625,4.861999988555908 C-11.444000244140625,4.861999988555908 -5.908999919891357,7.304999828338623 -2.319000005722046,2.2190001010894775 C1.2710000276565552,-2.868000030517578 5.111000061035156,-9.89799976348877 11.343999862670898,-7.605000019073486z"></path></g></g><g transform="matrix(1,0,0,1,267.27099609375,320.0840148925781)" opacity="1" style="display: block;"><g opacity="1" transform="matrix(1,0,0,1,9.515000343322754,9.515999794006348)"><path fill="rgb(22,22,18)" fill-opacity="1" d=" M9.265000343322754,-0.0010000000474974513 C9.265000343322754,5.116000175476074 5.117000102996826,9.265999794006348 0,9.265999794006348 C-5.117000102996826,9.265999794006348 -9.265000343322754,5.116000175476074 -9.265000343322754,-0.0010000000474974513 C-9.265000343322754,-5.118000030517578 -5.117000102996826,-9.265999794006348 0,-9.265999794006348 C5.117000102996826,-9.265999794006348 9.265000343322754,-5.118000030517578 9.265000343322754,-0.0010000000474974513z"></path></g><g opacity="1" transform="matrix(1,0,0,1,55.72100067138672,9.515999794006348)"><path fill="rgb(22,22,18)" fill-opacity="1" d=" M9.265000343322754,-0.0010000000474974513 C9.265000343322754,5.116000175476074 5.117000102996826,9.265999794006348 0,9.265999794006348 C-5.117000102996826,9.265999794006348 -9.265000343322754,5.116000175476074 -9.265000343322754,-0.0010000000474974513 C-9.265000343322754,-5.118000030517578 -5.117000102996826,-9.265999794006348 0,-9.265999794006348 C5.117000102996826,-9.265999794006348 9.265000343322754,-5.118000030517578 9.265000343322754,-0.0010000000474974513z"></path></g></g><g transform="matrix(1,0,0,1,297.0630187988281,79.38999938964844)" opacity="1" style="display: block;"><g opacity="1" transform="matrix(1,0,0,1,103.81800079345703,84.83699798583984)"><path fill="rgb(22,22,18)" fill-opacity="1" d=" M70.72100067138672,-84.58699798583984 C70.72100067138672,-84.58699798583984 -70.72100067138672,-84.58699798583984 -70.72100067138672,-84.58699798583984 C-88.86199951171875,-84.58699798583984 -103.56800079345703,-69.88099670410156 -103.56800079345703,-51.7400016784668 C-103.56800079345703,-51.7400016784668 -103.56800079345703,11.303999900817871 -103.56800079345703,11.303999900817871 C-103.56800079345703,29.44499969482422 -88.86199951171875,44.1510009765625 -70.72100067138672,44.1510009765625 C-70.72100067138672,44.1510009765625 -63.54399871826172,44.1510009765625 -63.54399871826172,44.1510009765625 C-63.54399871826172,44.1510009765625 -63.54399871826172,84.58699798583984 -63.54399871826172,84.58699798583984 C-63.54399871826172,84.58699798583984 -23.10700035095215,44.1510009765625 -23.10700035095215,44.1510009765625 C-23.10700035095215,44.1510009765625 70.72100067138672,44.1510009765625 70.72100067138672,44.1510009765625 C88.86199951171875,44.1510009765625 103.56800079345703,29.44499969482422 103.56800079345703,11.303999900817871 C103.56800079345703,11.303999900817871 103.56800079345703,-51.7400016784668 103.56800079345703,-51.7400016784668 C103.56800079345703,-69.88099670410156 88.86199951171875,-84.58699798583984 70.72100067138672,-84.58699798583984z"></path></g></g><g transform="matrix(1,0,0,1,326.0630187988281,122.38998413085938)" opacity="1" style="display: block;"><g opacity="1" transform="matrix(1,0,0,1,10.628000259399414,19.308000564575195)"><path fill="rgb(255,255,255)" fill-opacity="1" d=" M8.734999656677246,1.149999976158142 C8.734999656677246,1.149999976158142 -5.613999843597412,1.149999976158142 -5.613999843597412,1.149999976158142 C-5.613999843597412,1.149999976158142 -5.613999843597412,14.458000183105469 -5.613999843597412,14.458000183105469 C-5.613999843597412,14.458000183105469 10.378000259399414,14.458000183105469 10.378000259399414,14.458000183105469 C10.378000259399414,14.458000183105469 10.378000259399414,18.454999923706055 10.378000259399414,18.454999923706055 C10.378000259399414,18.454999923706055 -10.378000259399414,18.454999923706055 -10.378000259399414,18.454999923706055 C-10.378000259399414,18.454999923706055 -10.378000259399414,-18.454999923706055 -10.378000259399414,-18.454999923706055 C-10.378000259399414,-18.454999923706055 9.555999755859375,-18.454999923706055 9.555999755859375,-18.454999923706055 C9.555999755859375,-18.454999923706055 9.555999755859375,-14.458000183105469 9.555999755859375,-14.458000183105469 C9.555999755859375,-14.458000183105469 -5.613999843597412,-14.458000183105469 -5.613999843597412,-14.458000183105469 C-5.613999843597412,-14.458000183105469 -5.613999843597412,-2.7929999828338623 -5.613999843597412,-2.7929999828338623 C-5.613999843597412,-2.7929999828338623 8.734999656677246,-2.7929999828338623 8.734999656677246,-2.7929999828338623 C8.734999656677246,-2.7929999828338623 8.734999656677246,1.149999976158142 8.734999656677246,1.149999976158142z"></path></g><g opacity="1" transform="matrix(1,0,0,1,39.2130012512207,19.17099952697754)"><path fill="rgb(255,255,255)" fill-opacity="1" d=" M-12.020000457763672,-17.825000762939453 C-9.609999656677246,-18.31800079345703 -6.159999847412109,-18.591999053955078 -2.874000072479248,-18.591999053955078 C2.2190001010894775,-18.591999053955078 5.505000114440918,-17.660999298095703 7.804999828338623,-15.579999923706055 C9.666999816894531,-13.937000274658203 10.706000328063965,-11.418000221252441 10.706000328063965,-8.569999694824219 C10.706000328063965,-3.697000026702881 7.640999794006348,-0.4650000035762787 3.752000093460083,0.8489999771118164 C3.752000093460083,0.8489999771118164 3.752000093460083,1.0130000114440918 3.752000093460083,1.0130000114440918 C6.598999977111816,1.9989999532699585 8.29800033569336,4.627999782562256 9.173999786376953,8.461000442504883 C10.378999710083008,13.609000205993652 11.253999710083008,17.16900062561035 12.020000457763672,18.591999053955078 C12.020000457763672,18.591999053955078 7.0929999351501465,18.591999053955078 7.0929999351501465,18.591999053955078 C6.489999771118164,17.552000045776367 5.668000221252441,14.37600040435791 4.627999782562256,9.776000022888184 C3.5320000648498535,4.682000160217285 1.5609999895095825,2.7660000324249268 -2.765000104904175,2.6010000705718994 C-2.765000104904175,2.6010000705718994 -7.255000114440918,2.6010000705718994 -7.255000114440918,2.6010000705718994 C-7.255000114440918,2.6010000705718994 -7.255000114440918,18.591999053955078 -7.255000114440918,18.591999053955078 C-7.255000114440918,18.591999053955078 -12.020000457763672,18.591999053955078 -12.020000457763672,18.591999053955078 C-12.020000457763672,18.591999053955078 -12.020000457763672,-17.825000762939453 -12.020000457763672,-17.825000762939453z M-7.255000114440918,-1.0130000114440918 C-7.255000114440918,-1.0130000114440918 -2.38100004196167,-1.0130000114440918 -2.38100004196167,-1.0130000114440918 C2.7119998931884766,-1.0130000114440918 5.942999839782715,-3.805999994277954 5.942999839782715,-8.02299976348877 C5.942999839782715,-12.786999702453613 2.493000030517578,-14.868000030517578 -2.5460000038146973,-14.92300033569336 C-4.8460001945495605,-14.92300033569336 -6.48799991607666,-14.704000473022461 -7.255000114440918,-14.484999656677246 C-7.255000114440918,-14.484999656677246 -7.255000114440918,-1.0130000114440918 -7.255000114440918,-1.0130000114440918z"></path></g><g opacity="1" transform="matrix(1,0,0,1,68.67500305175781,19.17099952697754)"><path fill="rgb(255,255,255)" fill-opacity="1" d=" M-12.020000457763672,-17.825000762939453 C-9.609999656677246,-18.31800079345703 -6.159999847412109,-18.591999053955078 -2.874000072479248,-18.591999053955078 C2.2190001010894775,-18.591999053955078 5.505000114440918,-17.660999298095703 7.804999828338623,-15.579999923706055 C9.666999816894531,-13.937000274658203 10.706000328063965,-11.418000221252441 10.706000328063965,-8.569999694824219 C10.706000328063965,-3.697000026702881 7.640999794006348,-0.4650000035762787 3.752000093460083,0.8489999771118164 C3.752000093460083,0.8489999771118164 3.752000093460083,1.0130000114440918 3.752000093460083,1.0130000114440918 C6.599999904632568,1.9989999532699585 8.29800033569336,4.627999782562256 9.173999786376953,8.461000442504883 C10.378999710083008,13.609000205993652 11.253999710083008,17.16900062561035 12.020000457763672,18.591999053955078 C12.020000457763672,18.591999053955078 7.0929999351501465,18.591999053955078 7.0929999351501465,18.591999053955078 C6.489999771118164,17.552000045776367 5.668000221252441,14.37600040435791 4.627999782562256,9.776000022888184 C3.5320000648498535,4.682000160217285 1.5609999895095825,2.7660000324249268 -2.765000104904175,2.6010000705718994 C-2.765000104904175,2.6010000705718994 -7.255000114440918,2.6010000705718994 -7.255000114440918,2.6010000705718994 C-7.255000114440918,2.6010000705718994 -7.255000114440918,18.591999053955078 -7.255000114440918,18.591999053955078 C-7.255000114440918,18.591999053955078 -12.020000457763672,18.591999053955078 -12.020000457763672,18.591999053955078 C-12.020000457763672,18.591999053955078 -12.020000457763672,-17.825000762939453 -12.020000457763672,-17.825000762939453z M-7.255000114440918,-1.0130000114440918 C-7.255000114440918,-1.0130000114440918 -2.38100004196167,-1.0130000114440918 -2.38100004196167,-1.0130000114440918 C2.7119998931884766,-1.0130000114440918 5.942999839782715,-3.805999994277954 5.942999839782715,-8.02299976348877 C5.942999839782715,-12.786999702453613 2.493000030517578,-14.868000030517578 -2.5460000038146973,-14.92300033569336 C-4.8460001945495605,-14.92300033569336 -6.48799991607666,-14.704000473022461 -7.255000114440918,-14.484999656677246 C-7.255000114440918,-14.484999656677246 -7.255000114440918,-1.0130000114440918 -7.255000114440918,-1.0130000114440918z"></path></g><g opacity="1" transform="matrix(1,0,0,1,100.95700073242188,19.308000564575195)"><path fill="rgb(255,255,255)" fill-opacity="1" d=" M16.868000030517578,-0.3840000033378601 C16.868000030517578,12.321999549865723 9.145999908447266,19.058000564575195 -0.27399998903274536,19.058000564575195 C-10.020999908447266,19.058000564575195 -16.868000030517578,11.5 -16.868000030517578,0.328000009059906 C-16.868000030517578,-11.390999794006348 -9.585000038146973,-19.058000564575195 0.27300000190734863,-19.058000564575195 C10.350000381469727,-19.058000564575195 16.868000030517578,-11.336000442504883 16.868000030517578,-0.3840000033378601z M-11.77400016784668,0.21899999678134918 C-11.77400016784668,8.104999542236328 -7.504000186920166,15.170000076293945 -0.0010000000474974513,15.170000076293945 C7.557000160217285,15.170000076293945 11.829000473022461,8.21500015258789 11.829000473022461,-0.164000004529953 C11.829000473022461,-7.502999782562256 7.994999885559082,-15.170000076293945 0.05400000140070915,-15.170000076293945 C-7.831999778747559,-15.170000076293945 -11.77400016784668,-7.886000156402588 -11.77400016784668,0.21899999678134918z"></path></g><g opacity="1" transform="matrix(1,0,0,1,136.03199768066406,19.17099952697754)"><path fill="rgb(255,255,255)" fill-opacity="1" d=" M-12.020000457763672,-17.825000762939453 C-9.609999656677246,-18.31800079345703 -6.159999847412109,-18.591999053955078 -2.874000072479248,-18.591999053955078 C2.2190001010894775,-18.591999053955078 5.505000114440918,-17.660999298095703 7.804999828338623,-15.579999923706055 C9.666999816894531,-13.937000274658203 10.706000328063965,-11.418000221252441 10.706000328063965,-8.569999694824219 C10.706000328063965,-3.697000026702881 7.640999794006348,-0.4650000035762787 3.752000093460083,0.8489999771118164 C3.752000093460083,0.8489999771118164 3.752000093460083,1.0130000114440918 3.752000093460083,1.0130000114440918 C6.598999977111816,1.9989999532699585 8.29800033569336,4.627999782562256 9.173999786376953,8.461000442504883 C10.378999710083008,13.609000205993652 11.253999710083008,17.16900062561035 12.020000457763672,18.591999053955078 C12.020000457763672,18.591999053955078 7.0929999351501465,18.591999053955078 7.0929999351501465,18.591999053955078 C6.489999771118164,17.552000045776367 5.668000221252441,14.37600040435791 4.627999782562256,9.776000022888184 C3.5320000648498535,4.682000160217285 1.5609999895095825,2.7660000324249268 -2.765000104904175,2.6010000705718994 C-2.765000104904175,2.6010000705718994 -7.255000114440918,2.6010000705718994 -7.255000114440918,2.6010000705718994 C-7.255000114440918,2.6010000705718994 -7.255000114440918,18.591999053955078 -7.255000114440918,18.591999053955078 C-7.255000114440918,18.591999053955078 -12.020000457763672,18.591999053955078 -12.020000457763672,18.591999053955078 C-12.020000457763672,18.591999053955078 -12.020000457763672,-17.825000762939453 -12.020000457763672,-17.825000762939453z M-7.255000114440918,-1.0130000114440918 C-7.255000114440918,-1.0130000114440918 -2.38100004196167,-1.0130000114440918 -2.38100004196167,-1.0130000114440918 C2.7119998931884766,-1.0130000114440918 5.942999839782715,-3.805999994277954 5.942999839782715,-8.02299976348877 C5.942999839782715,-12.786999702453613 2.493000030517578,-14.868000030517578 -2.5460000038146973,-14.92300033569336 C-4.8460001945495605,-14.92300033569336 -6.48799991607666,-14.704000473022461 -7.255000114440918,-14.484999656677246 C-7.255000114440918,-14.484999656677246 -7.255000114440918,-1.0130000114440918 -7.255000114440918,-1.0130000114440918z"></path></g></g><g transform="matrix(1,0,0,1,137.1959991455078,410.67401123046875)" opacity="1" style="display: block;"><g opacity="1" transform="matrix(1,0,0,1,82.61599731445312,79.94599914550781)"><path fill="rgb(0,0,0)" fill-opacity="1" d=" M68.19400024414062,49.0620002746582 C53.5890007019043,49.62200164794922 -39.86800003051758,65.66500091552734 -52.152000427246094,15.86299991607666 C-59.07899856567383,-12.220999717712402 -44.61800003051758,-23.084999084472656 -30.541000366210938,-22.632999420166016 C-15.864999771118164,-22.16200065612793 -17.735000610351562,-12.239999771118164 -21.18400001525879,-2.4179999828338623 C-22.618000030517578,1.6649999618530273 -18.086999893188477,11.241999626159668 -8.418999671936035,-1.625 C1.8819999694824219,-15.335000038146973 -8.550999641418457,-41.13600158691406 -35.31100082397461,-38.90399932861328 C-63.11800003051758,-36.584999084472656 -78.61799621582031,-9.083999633789062 -67.1520004272461,26.64900016784668 C-50.04100036621094,79.97200012207031 51.88199996948242,72.16600036621094 76.5,66.2699966430664 C79.12899780273438,65.63999938964844 81.47699737548828,56.314998626708984 78.4219970703125,52.10499954223633 C75.89600372314453,48.624000549316406 69.96099853515625,48.994998931884766 68.19400024414062,49.0620002746582z"></path></g></g></g></svg>